# xmcd CD database file
#
# Track frame offsets:
#	150
#	3039
#	8161
#	17957
#	25630
#	31521
#	39491
#	48539
#	53545
#	65534
#	72740
#	77468
#	82703
#	98204
#	104571
#	117415
#	124291
#	136935
#	146799
#	150981
#	161038
#	165884
#	175508
#	186583
#	194163
#
# Disc length: 2766 seconds
#
# Revision: 0
# Processed by: cddbd v1.5.2PL0 Copyright (c) Steve Scherf et al.
# Submitted via: CDex 1.70beta2
#
DISCID=400acc19
DTITLE=Bill Holcombe - Jazz Etudes for Flute
DYEAR=1984
DGENRE=Jazz
TTITLE0=Tuning
TTITLE1=C major
TTITLE2=A minor
TTITLE3=F major
TTITLE4=D minor
TTITLE5=Bb major
TTITLE6=G minor
TTITLE7=Eb major
TTITLE8=C minor
TTITLE9=Ab major
TTITLE10=F minor
TTITLE11=Bb minor
TTITLE12=Db major
TTITLE13=Gb major
TTITLE14=Eb minor
TTITLE15=B major
TTITLE16=G# minor
TTITLE17=E major
TTITLE18=C# minor
TTITLE19=A major
TTITLE20=F# minor
TTITLE21=D major
TTITLE22=B minor
TTITLE23=G major
TTITLE24=E minor
EXTD=YEAR: 1984
EXTT0=
EXTT1=
EXTT2=
EXTT3=
EXTT4=
EXTT5=
EXTT6=
EXTT7=
EXTT8=
EXTT9=
EXTT10=
EXTT11=
EXTT12=
EXTT13=
EXTT14=
EXTT15=
EXTT16=
EXTT17=
EXTT18=
EXTT19=
EXTT20=
EXTT21=
EXTT22=
EXTT23=
EXTT24=
PLAYORDER=
